<?xml version="1.0" encoding="UTF-8" standalone="no"?>
<svg
   xmlns:dc="http://purl.org/dc/elements/1.1/"
   xmlns:cc="http://creativecommons.org/ns#"
   xmlns:rdf="http://www.w3.org/1999/02/22-rdf-syntax-ns#"
   xmlns:svg="http://www.w3.org/2000/svg"
   xmlns="http://www.w3.org/2000/svg"
   version="1.1"
   id="svg6661"
   viewBox="0 0 1024 1024"
   height="1024"
   width="1024">
  <defs
     id="defs6663" />
  <metadata
     id="metadata6666">
    <rdf:RDF>
      <cc:Work
         rdf:about="">
        <dc:format>image/svg+xml</dc:format>
        <dc:type
           rdf:resource="http://purl.org/dc/dcmitype/StillImage" />
        <dc:title></dc:title>
      </cc:Work>
    </rdf:RDF>
  </metadata>
  <g
     transform="translate(0,-28.362161)"
     id="layer1">
    <path
       id="path8426"
       style="fill:#231f20;fill-opacity:1;fill-rule:nonzero;stroke:none"
       d="m 131.89615,474.81429 c -0.10223,-2.21478 -0.12721,-4.42957 0.0454,-6.65856 0.38389,-4.8839 1.40554,-9.69681 3.05243,-14.45292 23.46825,20.17446 54.90123,37.85018 93.63166,52.53026 37.65142,14.29675 81.06698,25.47009 129.03989,33.17925 48.99513,7.89374 100.9433,11.9116 154.31122,11.9116 53.3963,0 105.33029,-4.01786 154.3538,-11.9116 47.97292,-7.72336 91.38848,-18.8825 129.0399,-33.19345 38.70203,-14.68007 70.135,-32.3416 93.61745,-52.51606 1.6327,4.74191 2.65491,9.56902 3.03824,14.45292 0.17037,2.22899 0.14197,4.44378 0.0454,6.65856 l 0.0227,0 c 0,0.22716 -0.0227,0.45431 -0.0227,0.69624 l 0,0.0113 c -1.39134,30.35399 -2.81108,104.26549 -4.20242,134.60527 -0.9234,19.12386 -11.69863,37.39587 -30.60953,54.10618 -19.02447,16.80968 -46.28342,31.98668 -80.00217,44.7927 -33.87494,12.87701 -74.19547,23.28369 -119.04495,30.51014 -44.93468,7.25486 -94.34153,11.24433 -146.23291,11.24433 -51.8772,0 -101.26984,-3.98947 -146.20452,-11.24433 -44.86363,-7.2264 -85.15577,-17.63308 -119.05908,-30.51009 -33.71819,-12.80545 -60.96294,-27.98245 -80.00162,-44.79214 -18.91089,-16.7103 -29.6725,-34.98231 -30.60952,-54.10617 -1.39135,-30.33978 -2.81108,-104.25129 -4.20243,-134.60527 l 0,-0.0114 c -0.0227,-0.24192 -0.0227,-0.46794 -0.0227,-0.69624 l 0.0227,0 z m 33.76134,-311.90201 c 20.11767,-16.58253 48.45562,-31.44718 82.92684,-43.82729 34.28665,-12.33751 74.67816,-22.261468 119.24371,-29.104605 44.46617,-6.800536 93.13475,-10.591234 144.1459,-10.591234 51.02534,0 99.69393,3.790698 144.16009,10.591234 44.55134,6.843137 84.98545,16.767095 119.25791,29.104605 34.45701,12.38011 62.79497,27.24476 82.91264,43.82729 20.25965,16.66771 32.22803,35.16688 33.71875,54.74505 0.17037,2.20059 0.14197,4.41539 0.0454,6.63018 l 0.0227,0 c 0,0.21239 -0.0227,0.46794 -0.0227,0.70986 -1.39134,30.35398 -2.81108,104.26549 -4.20242,134.59107 -0.9234,19.13805 -11.69863,37.43846 -30.60953,54.12037 -19.02447,16.82389 -46.28342,32.00087 -80.00217,44.8069 -33.87494,12.86282 -74.19547,23.28369 -119.04495,30.51015 -44.93468,7.24065 -94.34153,11.24431 -146.23291,11.24431 -51.87719,0 -101.26984,-4.00366 -146.20452,-11.24431 -44.86369,-7.22646 -85.15582,-17.64733 -119.05914,-30.51015 -33.71876,-12.80603 -60.96351,-27.98301 -80.00218,-44.8069 -18.91089,-16.68191 -29.6725,-34.98232 -30.60953,-54.12037 -1.39134,-30.32558 -2.81108,-104.23709 -4.20242,-134.59107 -0.0227,-0.24192 -0.0227,-0.49747 -0.0227,-0.70986 l 0.0227,0 c -0.10223,-2.21479 -0.12721,-4.42959 0.0454,-6.63018 1.50492,-19.57817 13.47331,-38.07734 33.71875,-54.74505 m 691.59711,751.85011 c -19.02447,16.82388 -46.28343,32.00087 -80.00218,44.8069 -33.87493,12.86281 -74.19546,23.26948 -119.04494,30.49595 -44.93468,7.25486 -94.34153,11.25846 -146.23291,11.25846 -51.8772,0 -101.26984,-4.0036 -146.20452,-11.25846 -44.86369,-7.22647 -85.15583,-17.63314 -119.05915,-30.49595 -33.71875,-12.80603 -60.9635,-27.98302 -80.00218,-44.8069 -18.91089,-16.68191 -29.6725,-34.99651 -30.60952,-54.12038 -1.39135,-30.32558 -2.81108,-104.23708 -4.20243,-134.59106 l 0,-0.0114 c -0.0227,-0.22716 -0.0227,-0.48271 -0.0227,-0.69624 l 0.0227,0 c -0.10222,-2.21479 -0.12721,-4.42958 0.0454,-6.64437 0.3839,-4.89809 1.40554,-9.7252 3.05244,-14.48132 23.42566,20.11767 54.83024,37.8076 93.60326,52.53028 37.50945,14.26835 80.92501,25.42748 129.03989,33.17925 48.85316,7.90793 100.80133,11.89739 154.33962,11.89739 53.56667,0 105.50065,-3.98946 154.38219,-11.89739 48.11489,-7.75177 91.53045,-18.9109 129.0399,-33.19345 38.75882,-14.73688 70.17759,-32.39841 93.56066,-52.51608 1.6611,4.75612 2.68331,9.58323 3.06664,14.48132 0.17037,2.21479 0.14197,4.42958 0.0454,6.64437 l 0.0227,0 c 0,0.21239 -0.0227,0.46794 -0.0227,0.69624 l 0,0.0114 c -1.39134,30.35398 -2.81108,104.26548 -4.20243,134.59106 -0.92339,19.12387 -11.69862,37.43847 -30.60952,54.12038 m 83.70769,-370.13963 c 0.68148,-25.04416 1.37715,-50.91176 2.04442,-65.83321 0.0999,-1.30616 0.18456,-2.62651 0.18456,-3.97526 0,-0.28395 -0.0284,-0.55427 -0.0284,-0.83821 0.0704,-3.42156 -0.0284,-6.65857 -0.26974,-9.81038 -1.079,-14.28255 -5.56537,-33.00888 -18.47079,-53.06977 10.19372,-18.58435 13.77146,-35.80577 14.39614,-49.08031 0.72407,-15.6455 1.43394,-41.0446 2.1438,-67.93442 0.68148,-25.02995 1.37715,-50.88337 2.04442,-65.819 0.0999,-1.30616 0.18456,-2.65491 0.18456,-3.97526 0,-0.27032 -0.0284,-0.5679 -0.0284,-0.83822 0.0704,-3.43576 -0.0284,-6.68696 -0.26974,-9.81038 -1.73208,-22.88616 -12.19555,-57.25799 -52.14695,-90.1391 C 866.21073,103.26799 833.18765,85.620658 792.63996,71.054155 754.86076,57.467271 711.54458,46.847637 663.86981,39.5218 615.44259,32.110774 564.34625,28.362666 511.98635,28.362666 c -52.3599,0 -103.44203,3.748108 -151.86927,11.159134 -47.64637,7.325837 -90.99094,17.945471 -128.79854,31.546555 -40.51929,14.552303 -73.54237,32.199635 -98.11802,52.459285 -39.923005,32.8811 -50.386465,67.23873 -52.132745,90.26687 -0.27031,3.33638 -0.34073,6.89992 -0.22715,10.73322 0,0.76665 0.0341,1.51911 0.0568,2.25738 l 0.0454,0.90863 c 0.65308,14.41033 1.37714,40.84583 2.07281,66.38689 0.7235,26.88983 1.41974,52.28892 2.11541,67.86344 0.63832,13.33132 4.23082,30.55274 14.42453,49.15129 -12.90541,20.08928 -17.39178,38.84401 -18.48498,53.19755 -0.25555,3.36477 -0.34073,6.92831 -0.22716,10.7616 0,0.75189 0.0341,1.51912 0.0568,2.28577 l 0.0454,0.85185 c 0.65308,14.43873 1.37714,40.87422 2.07281,66.42949 0.7235,26.88982 1.41974,52.28891 2.11541,67.84924 0.63832,13.33132 4.23082,30.55273 14.45292,49.12289 -12.9338,20.08928 -17.42017,38.8724 -18.51337,53.24014 -0.27032,3.35058 -0.34073,6.91412 -0.22716,10.74741 0,0.76666 0.0341,1.53332 0.0568,2.28578 l 0.0454,0.85184 c 0.65307,14.45292 1.37714,40.84583 2.07281,66.4011 0.7235,26.87561 1.41974,52.28891 2.11541,67.86342 1.09263,22.81518 10.26469,56.90307 47.802545,90.05392 23.62442,20.84174 55.82406,39.09956 95.70447,54.23394 37.55204,14.2826 80.9676,25.4559 129.0115,33.1935 48.95253,7.8795 100.88651,11.8974 154.33961,11.8974 53.46729,0 105.40128,-4.0179 154.3538,-11.9116 48.0723,-7.7376 91.48786,-18.9109 129.0399,-33.1793 39.88041,-15.13438 72.08004,-33.3922 95.70447,-54.27653 37.50945,-33.10826 46.68095,-67.19615 47.74576,-89.94034 0.72406,-15.6455 1.43393,-41.0446 2.1438,-67.92021 0.68147,-25.04416 1.37715,-50.88338 2.04441,-65.81901 0.1,-1.30616 0.18457,-2.64071 0.18457,-3.97527 0,-0.28394 -0.0284,-0.56789 -0.0284,-0.83707 0.0704,-3.43577 -0.0284,-6.67277 -0.26974,-9.81038 -1.079,-14.28256 -5.56537,-33.02309 -18.47078,-53.09817 10.19371,-18.55596 13.77145,-35.74898 14.39614,-49.03771 0.72406,-15.64551 1.43393,-41.0446 2.1438,-67.93442" />
    <g
       transform="matrix(0.80000024,0,0,-0.25306147,-163.93585,211.44398)"
       id="g3376">
      <path
         id="path3378"
         style="fill:#bcbec0;fill-opacity:1;fill-rule:evenodd;stroke:none"
         d="m 1004.0522,-41.683178 c 45.4142,0 82.2456,36.8340008 82.2456,82.250876 0,45.417751 -36.8314,82.250002 -82.2456,82.250002 -45.41777,0 -82.24652,-36.832251 -82.24652,-82.250002 0,-45.4168752 36.82875,-82.250876 82.24652,-82.250876 M 851.20981,25.669073 c 0,88.875497 54.31825,168.462007 152.84239,168.462007 84.7919,0 153.552,-68.76801 153.552,-153.563382 0,-84.795376 -68.7601,-153.561628 -153.552,-153.561628 -30.26452,0 -58.48414,8.75788 -82.26752,23.880502 l 0,-214.368872 c 158.18072,35.105 276.50262,176.25825 276.50262,344.994998 0,195.136382 -158.2411,353.383632 -353.36612,353.383632 -79.00462,0 -151.96387,-25.942 -210.81812,-69.77338 l 0,99.83925 c 62.53012,34.46275 134.38775,54.07238 210.81812,54.07238 241.58222,0 437.49822,-195.92563 437.49822,-437.521882 0,-239.494498 -192.5227,-434.111128 -431.20959,-437.478128 l 0,27.7585 0,393.876003 z" />
    </g>
    <g
       transform="matrix(0.70000022,0,0,-0.22142879,384.12617,179.88524)"
       id="g3380">
      <path
         id="path3382"
         style="fill:#52658d;fill-opacity:1;fill-rule:evenodd;stroke:none"
         d="m 0,0 c 51.904,0 93.996,-42.094 93.996,-93.999 0,-51.906 -42.092,-94 -93.996,-94 -51.906,0 -93.996,42.094 -93.996,94 C -93.996,-42.094 -51.906,0 0,0 m -221.17,-95.081 c 0,67.987 16.809,132.057 46.493,188.276 l 0,-170.166 c 0,-101.573 62.078,-192.528 174.677,-192.528 96.905,0 175.49,78.591 175.49,175.5 C 175.49,2.909 96.905,81.499 0,81.499 c -34.586,0 -66.838,-10.01 -94.015,-27.292 l 0,195.356 0,71.878 C -228.613,231.828 -317.323,78.712 -317.323,-95.081 c 0,-264.339 205.225,-480.84 464.993,-498.817 l 0,96.45 c -206.616,17.751 -368.84,191.152 -368.84,402.367" />
    </g>
  </g>
</svg>
